<svg width="88" height="104" viewBox="0 0 88 104" fill="none" xmlns="http://www.w3.org/2000/svg">
<circle cx="20" cy="36.0002" r="4" fill="#0D1014"/>
<circle cx="34" cy="36.0002" r="4" fill="#0D1014"/>
<circle cx="48" cy="36.0002" r="4" fill="#0D1014"/>
<circle cx="62" cy="36.0002" r="4" fill="#0D1014"/>
<circle cx="76" cy="36.0002" r="4" fill="#0D1014"/>
<circle cx="20" cy="50.0002" r="4" fill="#0D1014"/>
<circle cx="34" cy="50.0002" r="4" fill="#0D1014"/>
<circle cx="48" cy="50.0002" r="4" fill="#0D1014"/>
<circle cx="62" cy="50.0002" r="4" fill="#0D1014"/>
<circle cx="76" cy="50.0002" r="4" fill="#0D1014"/>
<circle cx="20" cy="64.0002" r="4" fill="#0D1014"/>
<circle cx="34" cy="64.0002" r="4" fill="#0D1014"/>
<circle cx="48" cy="64.0002" r="4" fill="#0D1014"/>
<circle cx="62" cy="64.0002" r="4" fill="#0D1014"/>
<circle cx="76" cy="64.0002" r="4" fill="#0D1014"/>
<circle cx="20" cy="78.0002" r="4" fill="#0D1014"/>
<circle cx="34" cy="78.0002" r="4" fill="#0D1014"/>
<circle cx="48" cy="78.0002" r="4" fill="#0D1014"/>
<circle cx="62" cy="78.0002" r="4" fill="#0D1014"/>
<circle cx="76" cy="78.0002" r="4" fill="#0D1014"/>
<circle cx="20" cy="92.0002" r="4" fill="#0D1014"/>
<circle cx="34" cy="92.0002" r="4" fill="#0D1014"/>
<circle cx="48" cy="92.0002" r="4" fill="#0D1014"/>
<circle cx="62" cy="92.0002" r="4" fill="#0D1014"/>
<circle cx="76" cy="92.0002" r="4" fill="#0D1014"/>
<rect y="16.0002" width="88" height="88" fill="url(#paint0_linear_3480_41801)"/>
<defs>
<linearGradient id="paint0_linear_3480_41801" x1="44" y1="16.0002" x2="44" y2="104" gradientUnits="userSpaceOnUse">
<stop offset="0.411458" stop-color="#0D1014" stop-opacity="0"/>
<stop offset="1" stop-color="#0D1014"/>
</linearGradient>
</defs>
</svg>
